# xmcd
#
# Track frame offsets: 
#        150
#        8714
#        24968
#        37373
#        52737
#        66399
#        80262
#        89977
#        105039
#        116018
#        125124
#        138401
#        152114
#        164646
#        177874
#        191480
#        206835
#        219640
#        232787
#        242714
#        256334
#        268343
#        280954
#        294489
#
# Disc length: 4093 seconds
#
# Revision: 1
# Processed by: cddbd v1.5.2PL0 Copyright (c) Steve Scherf et al.
# Submitted via: ExactAudioCopy v0.99pb4
#
DISCID=640ffb18
DTITLE=Ray Charles - 17 Original Albums [CD4]
DYEAR=2015
DGENRE=Blues
TTITLE0=Alabamy Bound (Buddy DeSylva, Bud Green, Ray Henderson)
TTITLE1=Georgia On My Mind (Hoagy Carmichael, Stuart Gorrell) US#1 7''
TTITLE1=a ABC-Paramount 45-10135 1960
TTITLE2=Basin Street Blues (Spencer Williams)
TTITLE3=Mississippi Mud (Harry Barris, James Cavanaugh)
TTITLE4=Moonlight In Vermont (John Blackburn, Karl Suessdorf)
TTITLE5=New York's My Home (Gordon Jenkins)
TTITLE6=California Here I Come (Buddy DeSylva, Al Jolson, Joseph Meyer
TTITLE6=)
TTITLE7=Moon Over Miami (Joe Burke, Edgar Leslie)
TTITLE8=Deep In The Heart Of Texas (June Hershey, Don Swander)
TTITLE9=Carry Me Back To Old Virginny (James A. Bland) 7''b ABC-Paramo
TTITLE9=unt 45-10135 1960
TTITLE10=Blue Hawaii (Ralph Rainger, Leo Robin)
TTITLE11=Chattanooga Choo Choo (Mack Gordon, Harry Warren)
TTITLE12=Early In The Mornin' (Dallas Bartley, Leo Hickman, Louis Jord
TTITLE12=an) 7''a to A Bit Of Soul Atlantic 2094 1961 [UK 1960X]
TTITLE13=Hard Times (No One Knows Better Than I) 7''a Atlantic 2118 19
TTITLE13=61
TTITLE14=The Midnight Hour (Sam Sweet)
TTITLE15=(Night Time Is) The Right Time (Napoleon Brown, Ozzie Cadena,
TTITLE15=Lew Herman) US#95 7''a to Tell All The World.. Atlantic 2010
TTITLE15=1959
TTITLE16=Feelin' Sad (Guitar Slim) 7''a to Carrying That Load Atlantic
TTITLE16=2174 1962
TTITLE17=Ray's Blues
TTITLE18=I'm Movin' On (Hank Snow) US#40 7''a Atlantic 2042 [Ray Charl
TTITLE18=es And His Orchestra] 1959
TTITLE19=I Believe To My Soul 7''b Atlantic 2042 [Ray Charles And His 
TTITLE19=Orchestra] 1959
TTITLE20=Nobody Cares
TTITLE21=Mister Charles' Blues
TTITLE22=Some Day Baby
TTITLE23=I Wonder Who 7''b Atlantic 2118 1961
EXTD=
EXTT0=
EXTT1=
EXTT2=
EXTT3=
EXTT4=
EXTT5=
EXTT6=
EXTT7=
EXTT8=
EXTT9=
EXTT10=
EXTT11=
EXTT12=
EXTT13=
EXTT14=
EXTT15=
EXTT16=
EXTT17=
EXTT18=
EXTT19=
EXTT20=
EXTT21=
EXTT22=
EXTT23=
PLAYORDER=
